<?xml version="1.0" encoding="UTF-8"?>
<svg id="Layer_2" data-name="Layer 2" xmlns="http://www.w3.org/2000/svg" viewBox="0 0 32 35.61">
  <defs>
    <style>
      .cls-1 {
        fill: #56a4e5;
      }

      .cls-1, .cls-2, .cls-3, .cls-4, .cls-5, .cls-6, .cls-7, .cls-8, .cls-9, .cls-10, .cls-11, .cls-12, .cls-13, .cls-14, .cls-15 {
        stroke-width: 0px;
      }

      .cls-2 {
        fill: #515d6e;
      }

      .cls-3 {
        fill: #65656b;
      }

      .cls-4 {
        fill: #febb35;
      }

      .cls-5 {
        fill: #fe6766;
      }

      .cls-6 {
        fill: #e65d5c;
      }

      .cls-7 {
        fill: #feba34;
      }

      .cls-8 {
        fill: #fd9934;
      }

      .cls-9 {
        fill: #d3dde6;
      }

      .cls-10 {
        fill: #e9f5fe;
      }

      .cls-11 {
        fill: #66b9fd;
      }

      .cls-12 {
        fill: #60b6fe;
      }

      .cls-13 {
        fill: #e5f3fe;
      }

      .cls-14 {
        fill: #56a5e5;
      }

      .cls-15 {
        fill: #64b8fe;
      }
    </style>
  </defs>
  <g id="Layer_1-2" data-name="Layer 1">
    <g>
      <path class="cls-12" d="M4.32,0h21.02c0,1.55,0,3.1,0,4.65,0,1.42,0,2.85.01,4.27-.06.12-.12.25-.19.37-.76,1.32-1.53,2.64-2.29,3.97-1.07,1.86-2.14,3.73-3.21,5.59v4.43c.08-.05.14-.08.19-.11.48-.27.97-.54,1.45-.82.73-.42,1.45-.86,2.17-1.29.07-.09.14-.18.2-.27.55-.94,1.11-1.89,1.66-2.83,0,2.98,0,5.97.01,8.95-.14,0-.28.01-.42.01-6.73,0-13.45,0-20.18,0-.14,0-.28,0-.42-.01,0-8.97,0-17.95,0-26.92ZM14.54,8.63c2.18,0,4.36,0,6.54,0,.59,0,.64-.05.64-.62,0-1.25,0-2.5,0-3.75,0-.54-.09-.63-.62-.63-2.28,0-4.57,0-6.85,0-2.1,0-4.2,0-6.29,0-.5,0-.57.07-.57.56,0,1.3,0,2.6,0,3.89,0,.51.05.56.55.56,2.2,0,4.4,0,6.61,0ZM12.6,11.77c-1.04,0-2.09,0-3.13,0-.49,0-.97,0-1.46,0-.39,0-.62.2-.63.5,0,.32.23.52.64.53.05,0,.09,0,.14,0,2.95,0,5.91,0,8.86,0,.12,0,.23,0,.35-.02.27-.05.44-.23.43-.51,0-.28-.18-.45-.45-.49-.11-.02-.23-.01-.35-.01-1.47,0-2.94,0-4.41,0ZM12.56,16.42c1.48,0,2.97,0,4.45,0,.12,0,.23,0,.35-.01.27-.05.44-.22.44-.5,0-.28-.17-.45-.44-.5-.1-.02-.21-.01-.31-.01-2.98,0-5.95,0-8.93,0-.1,0-.21,0-.31.02-.27.06-.43.23-.43.51,0,.27.17.42.42.48.11.03.23.02.35.02,1.47,0,2.94,0,4.41,0ZM12.6,20.04c1.48,0,2.97,0,4.45,0,.12,0,.24,0,.35-.02.26-.06.44-.24.39-.49-.04-.18-.22-.35-.37-.47-.09-.07-.27-.04-.41-.04-2.95,0-5.91,0-8.86,0-.14,0-.28,0-.41.04-.25.08-.42.28-.34.52.06.18.25.32.41.44.07.05.2.02.31.02,1.49,0,2.99,0,4.48,0Z"/>
      <path class="cls-14" d="M4.31,32.76c-.75.03-1.51.07-2.22-.27C.74,31.86.03,30.77.02,29.28c-.02-2.86,0-5.72,0-8.59,0-5.39.02-10.78-.01-16.17C-.01,2.12,1.63.38,3.54.06c.03,0,.05-.04.08-.06.23,0,.46,0,.7,0,0,8.97,0,17.95,0,26.92-.31,0-.62,0-.94.02-1.33.05-2.34,1.12-2.33,2.44,0,1.3,1.04,2.34,2.36,2.37.3,0,.6.02.9.02,0,.33,0,.66,0,.99Z"/>
      <path class="cls-1" d="M14.54,8.63c-2.2,0-4.4,0-6.61,0-.51,0-.55-.05-.55-.56,0-1.3,0-2.6,0-3.89,0-.48.07-.56.57-.56,2.1,0,4.2,0,6.29,0,2.28,0,4.57,0,6.85,0,.53,0,.62.09.62.63,0,1.25,0,2.5,0,3.75,0,.58-.05.62-.64.62-2.18,0-4.36,0-6.54,0Z"/>
      <path class="cls-10" d="M4.31,31.78c-.3,0-.6-.02-.9-.02-1.32-.03-2.36-1.07-2.36-2.37,0-1.33,1.01-2.39,2.33-2.44.31-.01.62-.01.94-.02.14,0,.28.01.42.01,6.73,0,13.45,0,20.18,0,.14,0,.28,0,.42-.01,0,.63,0,1.26,0,1.9-7.17,0-14.33,0-21.5,0-.08,0-.16,0-.24,0-.38.03-.6.23-.6.55,0,.3.24.49.63.49.9,0,1.81,0,2.71,0,0,.63-.01,1.26-.02,1.9-.67,0-1.34.02-2.01.02Z"/>
      <path class="cls-7" d="M31.68,6.89c-1.08,1.88-2.15,3.75-3.23,5.63-.99,1.72-1.98,3.43-2.97,5.14-.06.1-.11.21-.16.31-.55.94-1.1,1.89-1.66,2.83-.06.1-.13.18-.2.27-.64-.38-1.28-.77-1.91-1.15.04-.04.09-.08.11-.13,1.05-1.82,2.11-3.65,3.16-5.47,1.17-2.02,2.34-4.05,3.51-6.07.47-.82.93-1.65,1.4-2.48.65.37,1.3.75,1.96,1.12Z"/>
      <path class="cls-8" d="M29.72,5.76c-.46.83-.92,1.66-1.4,2.48-1.17,2.03-2.34,4.05-3.51,6.07-1.05,1.82-2.11,3.65-3.16,5.47-.03.05-.08.09-.11.13-.61-.34-1.23-.68-1.84-1.03-.02-.01-.04-.03-.06-.04,1.07-1.86,2.14-3.73,3.21-5.59.76-1.32,1.53-2.64,2.29-3.97.07-.12.13-.25.19-.37.77-1.32,1.53-2.63,2.3-3.95.06-.11.14-.21.2-.32.63.35,1.25.7,1.88,1.05,0,.02,0,.04,0,.06Z"/>
      <path class="cls-13" d="M12.6,11.77c1.47,0,2.94,0,4.41,0,.12,0,.23,0,.35.01.27.05.44.22.45.49,0,.28-.16.45-.43.51-.11.02-.23.01-.35.02-2.95,0-5.91,0-8.86,0-.05,0-.09,0-.14,0-.41,0-.64-.21-.64-.53,0-.3.24-.5.63-.5.49,0,.97,0,1.46,0,1.04,0,2.09,0,3.13,0Z"/>
      <path class="cls-13" d="M12.56,16.42c-1.47,0-2.94,0-4.41,0-.12,0-.23,0-.35-.02-.25-.06-.42-.21-.42-.48,0-.28.16-.45.43-.51.1-.02.21-.02.31-.02,2.98,0,5.95,0,8.93,0,.1,0,.21,0,.31.01.27.05.44.22.44.5,0,.28-.17.45-.44.5-.11.02-.23.01-.35.01-1.48,0-2.97,0-4.45,0Z"/>
      <path class="cls-13" d="M12.6,20.04c-1.49,0-2.99,0-4.48,0-.1,0-.24.04-.31-.02-.16-.12-.36-.27-.41-.44-.08-.24.09-.45.34-.52.13-.04.27-.04.41-.04,2.95,0,5.91,0,8.86,0,.14,0,.31-.03.41.04.16.12.34.29.37.47.05.25-.14.43-.39.49-.11.03-.23.02-.35.02-1.48,0-2.97,0-4.45,0Z"/>
      <path class="cls-2" d="M19.71,18.89c.61.34,1.23.68,1.84,1.03.64.38,1.28.77,1.91,1.15-.72.43-1.44.86-2.17,1.29-.48.28-.96.54-1.45.82-.05-.1-.14-.21-.14-.31,0-1.32,0-2.65,0-3.97Z"/>
      <path class="cls-3" d="M19.71,18.89c0,1.32,0,2.65,0,3.97,0,.1.09.21.14.31-.06.03-.11.06-.19.11v-4.43s.04.03.06.04Z"/>
      <path class="cls-10" d="M25.33,29.85c0,.63,0,1.27-.01,1.9-4.75,0-9.5,0-14.25,0,0-.63-.01-1.26-.02-1.89.19,0,.37,0,.56,0,4.58,0,9.15,0,13.73,0Z"/>
      <path class="cls-9" d="M25.33,29.85c-4.58,0-9.15,0-13.73,0-.19,0-.37,0-.56,0-1.57,0-3.14,0-4.71,0-.9,0-1.81,0-2.71,0-.39,0-.63-.19-.63-.49,0-.32.21-.51.6-.55.08,0,.16,0,.24,0,7.17,0,14.33,0,21.5,0,0,.35,0,.69,0,1.04Z"/>
      <path class="cls-4" d="M6.34,29.86c1.57,0,3.14,0,4.71,0,0,.63.01,1.26.02,1.89,0,.34,0,.68,0,1.02,0,.8,0,1.6-.02,2.4,0,.15-.09.29-.14.43-.13-.07-.29-.11-.39-.22-.52-.53-1.04-1.06-1.54-1.6-.21-.22-.37-.22-.57,0-.52.56-1.05,1.11-1.59,1.65-.08.09-.23.11-.35.17-.05-.12-.13-.24-.13-.36-.02-.82-.01-1.64-.02-2.47,0-.34,0-.68,0-1.02,0-.63.01-1.26.02-1.9Z"/>
      <path class="cls-15" d="M11.07,32.78c0-.34,0-.68,0-1.02,4.75,0,9.5,0,14.25,0,0,.32,0,.64,0,1.02h-14.25Z"/>
      <path class="cls-5" d="M29.72,5.76s0-.04,0-.06c.37-.63.74-1.26,1.12-1.89,1.09.48,1.51,2,.84,3.07-.65-.37-1.3-.75-1.96-1.12Z"/>
      <path class="cls-6" d="M30.84,3.82c-.37.63-.74,1.26-1.12,1.89-.63-.35-1.25-.7-1.88-1.05.52-1.06,1.95-1.46,2.99-.84Z"/>
      <path class="cls-11" d="M6.32,31.75c0,.34,0,.68,0,1.02-.67,0-1.34,0-2.01-.01,0-.33,0-.66,0-.99.67,0,1.34-.02,2.01-.02Z"/>
    </g>
  </g>
</svg>